<?xml version="1.0" encoding="iso-8859-1"?>
<!-- Uploaded to: SVG Repo, www.svgrepo.com, Generator: SVG Repo Mixer Tools -->
<svg height="800px" width="800px" version="1.1" id="Layer_1" xmlns="http://www.w3.org/2000/svg" xmlns:xlink="http://www.w3.org/1999/xlink" 
	 viewBox="0 0 393.051 393.051" xml:space="preserve">
<path style="fill:#FF667C;" d="M262.109,218.505H130.618c-60.251,0-109.253,49.002-109.253,109.253v65.293h350.319v-65.228
	C371.362,267.248,322.683,218.505,262.109,218.505z"/>
<path style="fill:#C19D7B;" d="M237.737,0H154.99c-31.677,0-57.406,25.665-57.406,57.406v63.16h198.077v-63.16
	C295.402,25.665,269.737,0,237.737,0z"/>
<g>
	<circle style="fill:#EEB490;" cx="196.364" cy="208.549" r="49.002"/>
	<circle style="fill:#EEB490;" cx="126.416" cy="120.824" r="28.832"/>
	<circle style="fill:#EEB490;" cx="266.828" cy="120.824" r="28.832"/>
</g>
<path style="fill:#FACCB4;" d="M157.317,63.16c-18.877,0-34.327,14.933-34.586,33.81v0.259v52.105
	c0,40.081,31.418,73.891,71.499,75.184c41.632,1.034,75.701-32.259,75.701-73.632V97.164V96.97c0-18.877-15.709-33.81-34.586-33.81
	H157.317z"/>
</svg>