<?xml version="1.0" encoding="iso-8859-1"?>
<!-- Uploaded to: SVG Repo, www.svgrepo.com, Generator: SVG Repo Mixer Tools -->
<svg height="800px" width="800px" version="1.1" id="Layer_1" xmlns="http://www.w3.org/2000/svg" xmlns:xlink="http://www.w3.org/1999/xlink" 
	 viewBox="0 0 508.609 508.609" xml:space="preserve">
<circle style="fill:#56545F;" cx="254.135" cy="133.256" r="133.256"/>
<g>
	<circle style="fill:#EEB490;" cx="155.126" cy="195.306" r="33.229"/>
	<circle style="fill:#EEB490;" cx="353.483" cy="195.306" r="33.229"/>
	<path style="fill:#EEB490;" d="M420.281,348.906L317.203,336.36v-89.515H191.068v89.176l0,0L87.989,348.567
		c-38.654,4.747-67.475,37.637-67.475,76.291v83.412h467.581v-83.412C487.756,386.204,458.935,353.653,420.281,348.906z"/>
</g>
<path style="fill:#FACCB4;" d="M254.135,189.542c-40.689,0-75.613-16.615-88.498-40.011v76.63c0,48.826,39.672,88.498,88.498,88.498
	s88.498-39.672,88.498-88.498v-76.63C329.748,172.927,294.824,189.542,254.135,189.542z"/>
<g>
	<path style="fill:#FF667C;" d="M254.135,82.056c34.246,0,65.441,11.868,86.803,30.517c-12.207-36.281-46.453-62.389-86.803-62.389
		s-74.596,26.109-86.803,62.389C188.694,93.584,219.889,82.056,254.135,82.056z"/>
	<path style="fill:#FF667C;" d="M337.886,399.428L337.886,399.428c-46.114,0-83.751,37.298-83.751,83.751
		c0-46.114-37.298-83.751-83.751-83.751l0,0c-46.114,0-83.751,37.298-83.751,83.751v25.43h167.163h167.163v-25.43
		C421.298,436.726,384,399.428,337.886,399.428z"/>
</g>
</svg>